<svg width="20" height="20" viewBox="0 0 20 20" fill="none" xmlns="http://www.w3.org/2000/svg">
<path d="M16.25 2.5H14.375V1.875C14.375 1.70924 14.3092 1.55027 14.1919 1.43306C14.0747 1.31585 13.9158 1.25 13.75 1.25C13.5842 1.25 13.4253 1.31585 13.3081 1.43306C13.1908 1.55027 13.125 1.70924 13.125 1.875V2.5H6.875V1.875C6.875 1.70924 6.80915 1.55027 6.69194 1.43306C6.57473 1.31585 6.41576 1.25 6.25 1.25C6.08424 1.25 5.92527 1.31585 5.80806 1.43306C5.69085 1.55027 5.625 1.70924 5.625 1.875V2.5H3.75C3.41848 2.5 3.10054 2.6317 2.86612 2.86612C2.6317 3.10054 2.5 3.41848 2.5 3.75V16.25C2.5 16.5815 2.6317 16.8995 2.86612 17.1339C3.10054 17.3683 3.41848 17.5 3.75 17.5H16.25C16.5815 17.5 16.8995 17.3683 17.1339 17.1339C17.3683 16.8995 17.5 16.5815 17.5 16.25V3.75C17.5 3.41848 17.3683 3.10054 17.1339 2.86612C16.8995 2.6317 16.5815 2.5 16.25 2.5ZM16.25 16.25H3.75V3.75H5.625V4.375C5.625 4.54076 5.69085 4.69973 5.80806 4.81694C5.92527 4.93415 6.08424 5 6.25 5C6.41576 5 6.57473 4.93415 6.69194 4.81694C6.80915 4.69973 6.875 4.54076 6.875 4.375V3.75H13.125V4.375C13.125 4.54076 13.1908 4.69973 13.3081 4.81694C13.4253 4.93415 13.5842 5 13.75 5C13.9158 5 14.0747 4.93415 14.1919 4.81694C14.3092 4.69973 14.375 4.54076 14.375 4.375V3.75H16.25V16.25ZM13.7984 8.87812L11.4672 8.69766L10.5742 6.62734C10.526 6.51506 10.4459 6.41939 10.3438 6.35217C10.2417 6.28495 10.1222 6.24912 10 6.24912C9.87779 6.24912 9.75826 6.28495 9.6562 6.35217C9.55415 6.41939 9.47403 6.51506 9.42578 6.62734L8.53281 8.69766L6.20156 8.87812C6.0775 8.8879 5.95918 8.9345 5.86176 9.01194C5.76434 9.08938 5.69225 9.19414 5.65474 9.3128C5.61723 9.43147 5.616 9.55862 5.6512 9.67799C5.68641 9.79736 5.75644 9.9035 5.85234 9.98281L7.61172 11.4352L7.07578 13.6C7.0464 13.7194 7.05287 13.8447 7.09439 13.9604C7.1359 14.0761 7.2106 14.177 7.30916 14.2505C7.40772 14.324 7.52575 14.3667 7.64849 14.3734C7.77123 14.3802 7.89323 14.3505 7.99922 14.2883L10 13.1109L12.0008 14.2883C12.1068 14.3505 12.2288 14.3802 12.3515 14.3734C12.4742 14.3667 12.5923 14.324 12.6908 14.2505C12.7894 14.177 12.8641 14.0761 12.9056 13.9604C12.9471 13.8447 12.9536 13.7194 12.9242 13.6L12.3883 11.4352L14.1477 9.98281C14.2436 9.9035 14.3136 9.79736 14.3488 9.67799C14.384 9.55862 14.3828 9.43147 14.3453 9.3128C14.3077 9.19414 14.2357 9.08938 14.1382 9.01194C14.0408 8.9345 13.9225 8.8879 13.7984 8.87812ZM11.2898 10.7219C11.1989 10.7968 11.131 10.8959 11.094 11.0077C11.0569 11.1195 11.0523 11.2395 11.0805 11.3539L11.3539 12.457L10.3172 11.8469C10.2211 11.7903 10.1116 11.7604 10 11.7604C9.88845 11.7604 9.77893 11.7903 9.68281 11.8469L8.64609 12.457L8.91953 11.3539C8.94774 11.2395 8.94306 11.1195 8.90601 11.0077C8.86897 10.8959 8.80107 10.7968 8.71016 10.7219L7.84219 10.0047L9.00547 9.91484C9.11895 9.90613 9.22789 9.8666 9.32055 9.80052C9.41321 9.73443 9.48606 9.6443 9.53125 9.53984L10 8.45234L10.4688 9.53984C10.5139 9.6443 10.5868 9.73443 10.6795 9.80052C10.7721 9.8666 10.8811 9.90613 10.9945 9.91484L12.1578 10.0047L11.2898 10.7219Z" fill="#CFD8DC"/>
</svg>
