<svg width="20" height="20" viewBox="0 0 20 20" fill="none" xmlns="http://www.w3.org/2000/svg">
<path d="M9 5.75C9 5.55222 9.05865 5.35888 9.16853 5.19443C9.27841 5.02998 9.43459 4.90181 9.61732 4.82612C9.80004 4.75043 10.0011 4.73063 10.1951 4.76922C10.3891 4.8078 10.5673 4.90304 10.7071 5.04289C10.847 5.18275 10.9422 5.36093 10.9808 5.55491C11.0194 5.74889 10.9996 5.94996 10.9239 6.13268C10.8482 6.31541 10.72 6.47159 10.5556 6.58147C10.3911 6.69135 10.1978 6.75 10 6.75C9.73478 6.75 9.48043 6.64464 9.29289 6.45711C9.10536 6.26957 9 6.01522 9 5.75ZM10 9C9.80222 9 9.60888 9.05865 9.44443 9.16853C9.27998 9.27841 9.15181 9.43459 9.07612 9.61732C9.00043 9.80004 8.98063 10.0011 9.01922 10.1951C9.0578 10.3891 9.15304 10.5673 9.29289 10.7071C9.43275 10.847 9.61093 10.9422 9.80491 10.9808C9.99889 11.0194 10.2 10.9996 10.3827 10.9239C10.5654 10.8482 10.7216 10.72 10.8315 10.5556C10.9414 10.3911 11 10.1978 11 10C11 9.73478 10.8946 9.48043 10.7071 9.29289C10.5196 9.10536 10.2652 9 10 9ZM10 13.25C9.80222 13.25 9.60888 13.3087 9.44443 13.4185C9.27998 13.5284 9.15181 13.6846 9.07612 13.8673C9.00043 14.05 8.98063 14.2511 9.01922 14.4451C9.0578 14.6391 9.15304 14.8173 9.29289 14.9571C9.43275 15.097 9.61093 15.1922 9.80491 15.2308C9.99889 15.2694 10.2 15.2496 10.3827 15.1739C10.5654 15.0982 10.7216 14.97 10.8315 14.8056C10.9414 14.6411 11 14.4478 11 14.25C11 13.9848 10.8946 13.7304 10.7071 13.5429C10.5196 13.3554 10.2652 13.25 10 13.25Z" fill="#F5F5F5"/>
</svg>
