<svg width="20" height="20" viewBox="0 0 20 20" fill="none" xmlns="http://www.w3.org/2000/svg">
<path d="M17.7594 2.24059C17.6022 2.0835 17.406 1.97116 17.1909 1.91514C16.9759 1.85911 16.7498 1.86142 16.5359 1.92184H16.5242L1.5289 6.47184C1.28546 6.542 1.06909 6.68447 0.908449 6.88039C0.747813 7.0763 0.650498 7.3164 0.629403 7.56887C0.608307 7.82134 0.664426 8.07426 0.790323 8.29411C0.916219 8.51397 1.10595 8.69038 1.33437 8.79996L7.96875 12.0312L11.1953 18.6617C11.2957 18.8758 11.4552 19.0568 11.6551 19.1832C11.855 19.3096 12.0869 19.3761 12.3234 19.375C12.3594 19.375 12.3953 19.3734 12.4312 19.3703C12.6835 19.3498 12.9235 19.2528 13.119 19.092C13.3145 18.9313 13.4562 18.7146 13.525 18.4711L18.0719 3.47574C18.0719 3.47184 18.0719 3.46793 18.0719 3.46403C18.1331 3.25072 18.1364 3.02496 18.0815 2.80995C18.0265 2.59493 17.9154 2.39842 17.7594 2.24059ZM12.3305 18.1132L12.3266 18.1242V18.1187L9.19687 11.689L12.9469 7.93903C13.0591 7.82086 13.1208 7.66352 13.1187 7.50054C13.1166 7.33757 13.051 7.18185 12.9357 7.0666C12.8205 6.95135 12.6647 6.88568 12.5018 6.88359C12.3388 6.88151 12.1814 6.94317 12.0633 7.05543L8.31328 10.8054L1.88125 7.67574H1.87578H1.88672L16.875 3.12496L12.3305 18.1132Z" fill="#CFD8DC"/>
</svg>
