<svg width="800" height="800" viewBox="0 0 800 800" fill="none" xmlns="http://www.w3.org/2000/svg">
<rect width="800" height="800" fill="#F5F5F5"/>
<path d="M91.34 365.377C91.58 360.307 86.46 356.877 81.7 358.467C80.01 359.037 78.36 359.787 76.75 360.577C69.98 363.907 64.6 368.497 62.8 376.247C59.46 390.607 66.87 400.657 79.58 405.027C86.63 407.457 93.94 408.207 101.35 407.917C106.56 407.717 111.52 408.787 116.36 410.617C119.44 411.777 121.98 415.337 122.03 418.707C122.08 422.167 119.91 425.407 116.7 426.717C114.88 427.457 113.04 428.177 111.25 428.997C108.32 430.327 106.5 434.627 107.53 437.617C108.69 440.967 112.58 443.567 115.75 442.717C124.37 440.427 131.58 436.187 135.22 427.487C139.51 417.227 135.97 405.167 126.54 399.447C120.07 395.527 112.97 393.557 105.33 393.377C98.16 393.207 90.97 393.187 83.98 390.947C77.32 388.807 73.82 381.157 79.72 375.937C81.59 374.287 84.17 373.357 86.53 372.367C89.66 371.047 91.38 368.757 91.35 365.387L91.34 365.377ZM714.77 412.697C717.26 411.397 719.1 410.657 720.71 409.557C729.1 403.837 733.65 396.077 733.94 385.697C734.23 375.277 729.82 367.287 721.83 361.297C714.68 355.937 706.13 355.457 697.59 356.367C694.41 356.707 692.38 359.117 691.88 362.347C691.43 365.267 692.39 367.627 694.88 369.567C697.89 371.907 701.24 371.097 704.48 371.157C708.4 371.237 711.88 372.147 714.81 374.927C718.76 378.667 720.45 384.377 718.65 389.187C716.55 394.797 712.77 398.497 706.53 398.997C704.29 399.177 702.03 399.077 699.79 399.117C695.94 399.177 693.55 400.747 692.31 404.047C691.16 407.127 692.12 410.437 694.59 412.847C699.64 417.787 704.59 422.827 709.58 427.817C714.47 432.707 719.29 437.667 724.25 442.487C727.4 445.547 732.33 445.447 735.21 442.487C737.88 439.737 737.53 434.917 734.48 431.897C732.4 429.837 730.43 427.667 728.33 425.637C723.94 421.387 719.49 417.197 714.77 412.687V412.697ZM440.66 400.427C440.66 394.587 440.66 388.737 440.66 382.897C440.66 376.427 440.77 369.947 440.6 363.487C440.45 357.557 434.5 354.377 429.42 357.337C426.32 359.137 425.56 362.027 425.56 365.347C425.58 382.427 425.56 399.507 425.56 416.587C425.56 423.147 425.56 429.707 425.56 436.277C425.56 439.307 426.54 441.897 429.21 443.567C434.51 446.897 440.78 442.767 440.69 436.577C440.5 424.537 440.64 412.487 440.64 400.447L440.66 400.427ZM675.97 400.597C675.97 388.457 675.99 376.327 675.96 364.187C675.95 359.457 672.51 355.987 668.13 356.147C664.03 356.297 660.91 359.917 660.9 364.627C660.88 381.707 660.9 398.787 660.9 415.867C660.9 422.787 660.92 429.707 660.9 436.637C660.89 439.657 662.13 441.987 664.64 443.587C669.8 446.847 676.13 442.837 676.03 436.467C675.85 424.517 675.98 412.557 675.98 400.597H675.97ZM306 400.517C306 412.757 305.94 424.997 306.02 437.237C306.06 443.067 311.63 446.337 316.85 443.847C320.46 442.127 320.98 438.967 320.98 435.537C320.99 412.227 320.99 388.917 320.98 365.607C320.98 364.447 321.09 363.157 320.65 362.147C319.96 360.587 319.1 358.937 317.85 357.817C315.59 355.787 312.9 355.487 310.13 357.077C307.31 358.697 305.94 361.007 305.96 364.337C306.03 376.397 305.99 388.457 305.99 400.517H306ZM220.44 356.147C208.29 356.147 196.14 356.157 184 356.147C181.32 356.147 179.11 357.067 177.55 359.277C175.81 361.747 175.36 364.277 177.01 367.077C178.69 369.927 181.12 371.217 184.32 371.217C208.26 371.217 232.19 371.227 256.13 371.217C260.93 371.217 264.54 367.877 264.54 363.607C264.54 359.287 261.02 356.177 256.08 356.177C244.2 356.177 232.32 356.177 220.45 356.177L220.44 356.147ZM543.66 400.347C543.66 400.347 543.63 400.347 543.62 400.347C543.62 412.767 543.81 425.187 543.53 437.597C543.41 443.037 549.85 446.357 554.38 443.837C557.71 441.987 558.12 439.027 558.12 435.797C558.14 417.177 558.12 398.547 558.12 379.927C558.12 374.797 558.15 369.667 558.11 364.537C558.08 361.557 557.45 358.947 554.53 357.217C549.9 354.477 543.74 357.447 543.69 362.837C543.56 375.337 543.65 387.847 543.65 400.357L543.66 400.347ZM213.12 415.897C213.12 415.897 213.15 415.897 213.16 415.897C213.16 423.277 213.19 430.657 213.15 438.027C213.14 440.657 214.41 442.377 216.57 443.707C220.64 446.207 227.42 443.817 227.45 438.307C227.52 423.287 227.55 408.267 227.31 393.257C227.28 391.547 225.79 389.357 224.32 388.267C219.66 384.807 212.75 388.567 213.04 394.307C213.4 401.487 213.13 408.697 213.13 415.897H213.12ZM596.72 444.717C601.85 444.717 606.99 444.947 612.09 444.597C614.01 444.467 616.17 443.357 617.63 442.037C619.83 440.037 620.45 437.307 618.92 434.427C617.31 431.407 614.92 429.657 611.4 429.657C601.68 429.657 591.97 429.627 582.25 429.667C577.6 429.687 573.87 433.207 573.9 437.397C573.93 441.657 577.33 444.697 582.14 444.707C587 444.727 591.86 444.707 596.71 444.707L596.72 444.717ZM359.3 444.727C364.25 444.727 369.19 444.747 374.14 444.727C378.97 444.707 382.1 441.907 382.17 437.587C382.25 433.017 379 429.717 374.19 429.687C364.48 429.637 354.77 429.637 345.05 429.687C340.36 429.707 336.71 433.197 336.76 437.467C336.81 441.767 340.13 444.707 345 444.727C349.77 444.747 354.53 444.727 359.3 444.727ZM359.54 356.147C354.6 356.147 349.66 356.127 344.71 356.147C340.26 356.177 336.8 359.397 336.76 363.497C336.72 367.537 340.22 371.127 344.53 371.167C354.5 371.247 364.48 371.247 374.45 371.167C378.95 371.137 382.17 367.837 382.16 363.567C382.15 359.187 379.02 356.177 374.36 356.147C369.42 356.117 364.48 356.147 359.53 356.147H359.54ZM478.88 444.727C483.83 444.727 488.78 444.747 493.73 444.727C498.66 444.707 501.6 442.047 501.74 437.547C501.87 433.267 498.49 429.737 493.95 429.697C484.05 429.617 474.15 429.617 464.25 429.697C459.89 429.737 456.47 433.227 456.48 437.327C456.48 441.787 459.52 444.687 464.3 444.717C469.16 444.757 474.02 444.717 478.88 444.717V444.727ZM353.43 407.907C356.57 407.907 359.72 407.977 362.86 407.887C366.88 407.777 369.92 404.597 369.97 400.587C370.02 396.567 367.37 393.447 363.29 393.337C356.74 393.147 350.18 393.157 343.63 393.317C339.51 393.417 336.65 396.707 336.76 400.687C336.86 404.627 339.99 407.797 344 407.897C347.14 407.967 350.29 407.907 353.43 407.917V407.907ZM82.75 443.607C88.06 443.677 90.54 441.607 91.22 437.987C92.07 433.437 89.23 430.307 86.19 429.357C81.25 427.807 76.25 426.447 71.28 424.977C68.34 424.107 64.49 425.697 63.26 428.327C61.36 432.387 62.12 436.347 65.32 438.247C71.06 441.637 77.47 442.817 82.75 443.617V443.607ZM125.17 376.127C129.24 376.207 131.55 374.317 132.75 370.527C133.64 367.707 132.75 364.337 130.04 363.137C125.43 361.097 120.65 359.327 115.79 357.997C111.1 356.717 107.87 360.977 107.36 363.947C106.67 367.937 109.18 371.337 113.35 372.407C114.99 372.827 116.57 373.507 118.19 374.007C120.74 374.797 123.3 375.547 125.17 376.107V376.127Z" fill="#535452"/>
</svg>
