<?xml version="1.0" encoding="UTF-8"?>
<svg xmlns="http://www.w3.org/2000/svg" version="1.1" viewBox="0 0 16 16">
  <defs>
    <style>
      .cls-1 {
        fill: #252323;
      }
    </style>
  </defs>
  <!-- Generator: Adobe Illustrator 28.7.3, SVG Export Plug-In . SVG Version: 1.2.0 Build 164)  -->
  <g>
    <g id="Layer_1">
      <g id="Layer_1-2" data-name="Layer_1">
        <path class="cls-1" d="M6.6,2.5c0-.8-.7-1.3-1.5-1.1-.3,0-.5.2-.8.3-1.1.5-1.9,1.2-2.2,2.4-.5,2.2.6,3.8,2.6,4.5,1.1.4,2.2.5,3.4.4.8,0,1.6.1,2.3.4.5.2.9.7.9,1.3,0,.5-.3,1-.8,1.2-.3.1-.6.2-.8.4-.4.2-.7.9-.6,1.3.2.5.8.9,1.3.8,1.3-.4,2.5-1,3-2.4.7-1.6.1-3.5-1.4-4.3-1-.6-2.1-.9-3.3-.9-1.1,0-2.2,0-3.3-.4-1-.3-1.6-1.5-.7-2.3.3-.3.7-.4,1.1-.6.5-.2.7-.6.7-1.1h0Z"/>
        <path class="cls-1" d="M5.2,14.6c.8,0,1.2-.3,1.3-.9.1-.7-.3-1.2-.8-1.3-.8-.2-1.5-.4-2.3-.7-.5-.1-1.1.1-1.2.5-.3.6-.2,1.2.3,1.5.9.5,1.9.7,2.7.8h0Z"/>
        <path class="cls-1" d="M11.8,4.2c.6,0,1-.3,1.2-.9.1-.4,0-1-.4-1.1-.7-.3-1.4-.6-2.2-.8-.7-.2-1.2.5-1.3.9-.1.6.3,1.1.9,1.3.3,0,.5.2.7.3.4.1.8.2,1.1.3h0Z"/>
      </g>
    </g>
  </g>
</svg>