<svg width="16" height="16" viewBox="0 0 16 16" fill="none" xmlns="http://www.w3.org/2000/svg">
<rect width="16" height="16" rx="3" fill="#CFD8DC"/>
<path d="M6.82311 3.94676C6.82311 3.28475 6.24385 2.87099 5.58184 3.03649C5.33359 3.03649 5.16808 3.202 4.91983 3.28475C4.00957 3.6985 3.34756 4.27776 3.09931 5.27077C2.68555 7.0913 3.59581 8.41532 5.25084 8.99458C6.1611 9.32558 7.07136 9.40833 8.06437 9.32558C8.72638 9.32558 9.38839 9.40833 9.96765 9.65658C10.3814 9.82209 10.7124 10.2358 10.7124 10.7323C10.7124 11.1461 10.4642 11.5599 10.0504 11.7254C9.80215 11.8081 9.55389 11.8909 9.38839 12.0564C9.05739 12.2219 8.80913 12.8011 8.89189 13.1321C9.05739 13.5459 9.55389 13.8769 9.96765 13.7941C11.0434 13.4631 12.0364 12.9666 12.4502 11.8081C13.0294 10.4841 12.5329 8.91182 11.2917 8.24982C10.4642 7.75331 9.55389 7.50506 8.56088 7.50506C7.65062 7.50506 6.74036 7.50506 5.83009 7.17405C5.00258 6.9258 4.50607 5.93278 5.25084 5.27077C5.49909 5.02252 5.83009 4.93977 6.1611 4.77427C6.57485 4.60877 6.74036 4.27776 6.74036 3.86401L6.82311 3.94676Z" fill="#252323"/>
<path d="M5.66454 13.9596C6.32654 13.9596 6.65755 13.7114 6.7403 13.2149C6.82305 12.6356 6.49205 12.2219 6.07829 12.1391C5.41628 11.9736 4.83702 11.8081 4.17501 11.5598C3.76126 11.4771 3.26475 11.6426 3.182 11.9736C2.93375 12.4701 3.0165 12.9666 3.43025 13.2149C4.17501 13.6286 5.00253 13.7941 5.66454 13.8769V13.9596Z" fill="#252323"/>
<path d="M11.1262 5.35348C11.6227 5.35348 11.9537 5.10523 12.1192 4.60872C12.202 4.27772 12.1192 3.78121 11.7882 3.69846C11.209 3.4502 10.6297 3.20195 9.96771 3.03645C9.38845 2.87095 8.9747 3.4502 8.89195 3.78121C8.80919 4.27772 9.1402 4.69147 9.63671 4.85697C9.88496 4.85697 10.0505 5.02248 10.216 5.10523C10.547 5.18798 10.878 5.27073 11.1262 5.35348Z" fill="#252323"/>
</svg>
