<svg width="160" height="40" viewBox="0 0 160 40" fill="none" xmlns="http://www.w3.org/2000/svg">
<path d="M8.78072 12.2178C8.83618 11.0187 7.65291 10.2075 6.55284 10.5835C6.16226 10.7184 5.78094 10.8957 5.40885 11.0826C3.84425 11.8702 2.60089 12.9557 2.1849 14.7887C1.413 18.185 3.12551 20.5619 6.06289 21.5954C7.6922 22.1701 9.3816 22.3475 11.0941 22.2789C12.2982 22.2316 13.4445 22.4847 14.563 22.9175C15.2749 23.1918 15.8619 24.0338 15.8734 24.8309C15.885 25.6492 15.3835 26.4155 14.6416 26.7253C14.221 26.9003 13.7958 27.0706 13.3821 27.2645C12.7049 27.5791 12.2843 28.5961 12.5224 29.3032C12.7904 30.0955 13.6895 30.7105 14.4221 30.5094C16.4142 29.9678 18.0805 28.965 18.9217 26.9074C19.9132 24.4808 19.0951 21.6285 16.9157 20.2757C15.4204 19.3486 13.7796 18.8827 12.0139 18.8401C10.3569 18.7999 8.69521 18.7951 7.07976 18.2654C5.54058 17.7592 4.73171 15.9499 6.09524 14.7154C6.52741 14.3251 7.12367 14.1052 7.66909 13.871C8.39246 13.5588 8.78996 13.0172 8.78303 12.2202L8.78072 12.2178ZM152.86 23.4094C153.436 23.102 153.861 22.927 154.233 22.6668C156.172 21.314 157.224 19.4787 157.291 17.0237C157.358 14.5593 156.339 12.6696 154.492 11.2529C152.84 9.98518 150.864 9.87166 148.89 10.0869C148.155 10.1673 147.686 10.7373 147.57 11.5012C147.466 12.1918 147.688 12.75 148.264 13.2088C148.959 13.7622 149.733 13.5707 150.482 13.5848C151.388 13.6038 152.192 13.819 152.87 14.4765C153.782 15.361 154.173 16.7115 153.757 17.8491C153.272 19.1759 152.398 20.051 150.956 20.1693C150.438 20.2118 149.916 20.1882 149.398 20.1976C148.509 20.2118 147.956 20.5832 147.67 21.3636C147.404 22.0921 147.626 22.8749 148.197 23.4449C149.364 24.6133 150.508 25.8053 151.661 26.9855C152.791 28.142 153.905 29.3151 155.051 30.455C155.779 31.1788 156.919 31.1551 157.584 30.455C158.201 29.8046 158.12 28.6647 157.416 27.9504C156.935 27.4632 156.48 26.95 155.994 26.4699C154.98 25.4647 153.951 24.4737 152.86 23.4071V23.4094ZM89.5114 20.5075C89.5114 19.1263 89.5114 17.7427 89.5114 16.3615C89.5114 14.8313 89.5368 13.2987 89.4975 11.7708C89.4628 10.3683 88.0877 9.61623 86.9137 10.3163C86.1973 10.742 86.0216 11.4255 86.0216 12.2107C86.0262 16.2503 86.0216 20.2899 86.0216 24.3295C86.0216 25.881 86.0216 27.4325 86.0216 28.9863C86.0216 29.7029 86.2481 30.3155 86.8652 30.7105C88.09 31.498 89.5391 30.5213 89.5183 29.0573C89.4744 26.2097 89.5067 23.3598 89.5067 20.5122L89.5114 20.5075ZM143.893 20.5477C143.893 17.6765 143.898 14.8076 143.891 11.9364C143.889 10.8177 143.094 9.99701 142.081 10.0348C141.134 10.0703 140.413 10.9265 140.411 12.0404C140.406 16.08 140.411 20.1196 140.411 24.1592C140.411 25.7958 140.415 27.4325 140.411 29.0715C140.408 29.7857 140.695 30.3368 141.275 30.7152C142.467 31.4862 143.93 30.5378 143.907 29.0313C143.866 26.205 143.896 23.3763 143.896 20.5477H143.893ZM58.3904 20.5288C58.3904 23.4236 58.3765 26.3185 58.395 29.2134C58.4042 30.5922 59.6915 31.3656 60.8979 30.7767C61.7322 30.3699 61.8524 29.6225 61.8524 28.8113C61.8547 23.2983 61.8547 17.7853 61.8524 12.2722C61.8524 11.9979 61.8778 11.6928 61.7761 11.4539C61.6166 11.0849 61.4179 10.6947 61.129 10.4298C60.6067 9.94971 59.985 9.87875 59.3448 10.2548C58.6931 10.6379 58.3765 11.1843 58.3811 11.9719C58.3973 14.8242 58.388 17.6765 58.388 20.5288H58.3904ZM38.6168 10.0348C35.8088 10.0348 33.0008 10.0372 30.1952 10.0348C29.5758 10.0348 29.0651 10.2524 28.7045 10.7751C28.3024 11.3593 28.1984 11.9577 28.5797 12.6199C28.968 13.2939 29.5296 13.599 30.2691 13.599C35.8019 13.599 41.3323 13.6014 46.865 13.599C47.9743 13.599 48.8086 12.8091 48.8086 11.7992C48.8086 10.7775 47.9951 10.0419 46.8534 10.0419C44.1079 10.0419 41.3623 10.0419 38.6191 10.0419L38.6168 10.0348ZM113.315 20.4885C113.315 20.4885 113.309 20.4885 113.306 20.4885C113.306 23.426 113.35 26.3634 113.285 29.2985C113.258 30.5851 114.746 31.3703 115.793 30.7743C116.563 30.3368 116.657 29.6367 116.657 28.8728C116.662 24.469 116.657 20.0628 116.657 15.659C116.657 14.4457 116.664 13.2325 116.655 12.0192C116.648 11.3144 116.502 10.6971 115.828 10.2879C114.758 9.63988 113.334 10.3423 113.322 11.6171C113.292 14.5735 113.313 17.5322 113.313 20.4909L113.315 20.4885ZM36.925 24.1663C36.925 24.1663 36.932 24.1663 36.9343 24.1663C36.9343 25.9117 36.9412 27.6571 36.932 29.4002C36.9297 30.0222 37.2232 30.429 37.7224 30.7436C38.663 31.3349 40.2299 30.7696 40.2368 29.4664C40.253 25.9141 40.2599 22.3617 40.2045 18.8117C40.1975 18.4073 39.8532 17.8893 39.5135 17.6315C38.4365 16.8132 36.8395 17.7025 36.9066 19.06C36.9898 20.7582 36.9274 22.4634 36.9274 24.1663H36.925ZM125.578 30.9825C126.764 30.9825 127.952 31.0369 129.13 30.9541C129.574 30.9233 130.073 30.6608 130.411 30.3486C130.919 29.8756 131.062 29.2299 130.709 28.5488C130.337 27.8345 129.784 27.4206 128.971 27.4206C126.724 27.4206 124.48 27.4135 122.234 27.423C121.159 27.4277 120.297 28.2602 120.304 29.2512C120.311 30.2587 121.097 30.9777 122.209 30.9801C123.332 30.9848 124.455 30.9801 125.576 30.9801L125.578 30.9825ZM70.7084 30.9848C71.8524 30.9848 72.9941 30.9896 74.1381 30.9848C75.2543 30.9801 75.9777 30.3179 75.9939 29.2961C76.0123 28.2153 75.2612 27.4348 74.1496 27.4277C71.9055 27.4159 69.6615 27.4159 67.4151 27.4277C66.3312 27.4325 65.4877 28.2579 65.4992 29.2678C65.5108 30.2848 66.2781 30.9801 67.4036 30.9848C68.506 30.9896 69.606 30.9848 70.7084 30.9848ZM70.7639 10.0348C69.6222 10.0348 68.4805 10.0301 67.3365 10.0348C66.3081 10.0419 65.5085 10.8035 65.4992 11.7732C65.49 12.7287 66.2989 13.5778 67.2949 13.5872C69.5991 13.6061 71.9056 13.6061 74.2097 13.5872C75.2497 13.5801 75.9938 12.7996 75.9915 11.7897C75.9892 10.7538 75.2659 10.0419 74.1889 10.0348C73.0472 10.0278 71.9055 10.0348 70.7616 10.0348H70.7639ZM98.3443 30.9848C99.4883 30.9848 100.632 30.9896 101.776 30.9848C102.916 30.9801 103.595 30.351 103.627 29.2867C103.657 28.2744 102.876 27.4395 101.827 27.4301C99.5391 27.4112 97.2512 27.4112 94.9632 27.4301C93.9556 27.4395 93.1652 28.265 93.1675 29.2347C93.1675 30.2895 93.87 30.9754 94.9747 30.9825C96.0979 30.9919 97.2211 30.9825 98.3443 30.9825V30.9848ZM69.3518 22.2766C70.0775 22.2766 70.8055 22.2931 71.5312 22.2718C72.4602 22.2458 73.1628 21.4937 73.1743 20.5453C73.1859 19.5945 72.5735 18.8566 71.6305 18.8306C70.1168 18.7857 68.6007 18.788 67.0869 18.8259C66.1348 18.8495 65.4738 19.6277 65.4992 20.569C65.5223 21.5008 66.2457 22.2505 67.1725 22.2742C67.8981 22.2907 68.6261 22.2766 69.3518 22.2789V22.2766ZM6.7955 30.7199C8.02268 30.7365 8.59583 30.2469 8.75298 29.3907C8.94943 28.3146 8.29308 27.5744 7.59051 27.3497C6.44884 26.9831 5.2933 26.6614 4.14469 26.3138C3.46523 26.108 2.57547 26.4841 2.29121 27.1061C1.8521 28.0663 2.02774 29.0029 2.76729 29.4522C4.09385 30.254 5.57525 30.5331 6.7955 30.7223V30.7199ZM16.5991 14.7603C17.5397 14.7792 18.0736 14.3322 18.3509 13.4358C18.5566 12.7689 18.3509 11.9719 17.7246 11.688C16.6592 11.2056 15.5545 10.7869 14.4313 10.4724C13.3474 10.1697 12.6009 11.1772 12.4831 11.8796C12.3236 12.8233 12.9037 13.6274 13.8674 13.8805C14.2464 13.9798 14.6116 14.1406 14.986 14.2589C15.5753 14.4457 16.1669 14.6231 16.5991 14.7556V14.7603Z" fill="#535452"/>
</svg>
