<svg width="20" height="20" viewBox="0 0 20 20" fill="none" xmlns="http://www.w3.org/2000/svg">
<path d="M20 10.625C20 10.7907 19.9341 10.9497 19.8169 11.0669C19.6997 11.1841 19.5407 11.25 19.375 11.25H18.125V12.5C18.125 12.6657 18.0591 12.8247 17.9419 12.9419C17.8247 13.0591 17.6657 13.125 17.5 13.125C17.3342 13.125 17.1752 13.0591 17.058 12.9419C16.9408 12.8247 16.875 12.6657 16.875 12.5V11.25H15.625C15.4592 11.25 15.3002 11.1841 15.183 11.0669C15.0658 10.9497 15 10.7907 15 10.625C15 10.4592 15.0658 10.3002 15.183 10.183C15.3002 10.0658 15.4592 9.99995 15.625 9.99995H16.875V8.74995C16.875 8.58419 16.9408 8.42522 17.058 8.30801C17.1752 8.1908 17.3342 8.12495 17.5 8.12495C17.6657 8.12495 17.8247 8.1908 17.9419 8.30801C18.0591 8.42522 18.125 8.58419 18.125 8.74995V9.99995H19.375C19.5407 9.99995 19.6997 10.0658 19.8169 10.183C19.9341 10.3002 20 10.4592 20 10.625ZM15.4789 15.2226C15.5856 15.3496 15.6375 15.5138 15.6231 15.6791C15.6088 15.8444 15.5293 15.9971 15.4023 16.1039C15.2753 16.2106 15.1111 16.2624 14.9458 16.2481C14.7806 16.2337 14.6278 16.1543 14.5211 16.0273C12.9492 14.1554 10.7883 13.125 8.43748 13.125C6.0867 13.125 3.92576 14.1554 2.35389 16.0273C2.24718 16.1542 2.09443 16.2335 1.92923 16.2478C1.76404 16.2621 1.59994 16.2102 1.47303 16.1035C1.34612 15.9968 1.26679 15.844 1.25251 15.6788C1.23822 15.5136 1.29015 15.3495 1.39686 15.2226C2.56404 13.8335 4.01561 12.8468 5.62889 12.3187C4.64912 11.7085 3.89476 10.7957 3.47993 9.7186C3.0651 8.64146 3.01236 7.45852 3.32971 6.34874C3.64705 5.23897 4.31721 4.26273 5.23878 3.56775C6.16036 2.87276 7.28322 2.49683 8.43748 2.49683C9.59174 2.49683 10.7146 2.87276 11.6362 3.56775C12.5578 4.26273 13.2279 5.23897 13.5453 6.34874C13.8626 7.45852 13.8099 8.64146 13.395 9.7186C12.9802 10.7957 12.2258 11.7085 11.2461 12.3187C12.8594 12.8468 14.3109 13.8335 15.4789 15.2226ZM8.43748 11.875C9.24097 11.875 10.0264 11.6367 10.6945 11.1903C11.3626 10.7439 11.8833 10.1094 12.1907 9.3671C12.4982 8.62478 12.5787 7.80794 12.4219 7.0199C12.2652 6.23185 11.8783 5.50798 11.3101 4.93983C10.742 4.37168 10.0181 3.98476 9.23004 3.82801C8.44199 3.67126 7.62515 3.75171 6.88283 4.05919C6.1405 4.36667 5.50603 4.88737 5.05963 5.55545C4.61324 6.22352 4.37498 7.00896 4.37498 7.81245C4.37622 8.88951 4.80463 9.9221 5.56623 10.6837C6.32783 11.4453 7.36042 11.8737 8.43748 11.875Z" fill="#CFD8DC"/>
</svg>
