<svg width="20" height="20" viewBox="0 0 20 20" fill="none" xmlns="http://www.w3.org/2000/svg">
<path d="M3.37341 10C3.63828 10.2179 3.8517 10.4916 3.99841 10.8016C4.37341 11.575 4.37341 12.5203 4.37341 13.4375C4.37341 15.3367 4.45154 16.25 6.24841 16.25C6.41417 16.25 6.57314 16.3158 6.69035 16.4331C6.80756 16.5503 6.87341 16.7092 6.87341 16.875C6.87341 17.0408 6.80756 17.1997 6.69035 17.3169C6.57314 17.4342 6.41417 17.5 6.24841 17.5C4.88279 17.5 3.95779 17.0203 3.49841 16.0734C3.12341 15.3 3.12341 14.3547 3.12341 13.4375C3.12341 11.5383 3.04529 10.625 1.24841 10.625C1.08265 10.625 0.923682 10.5592 0.806471 10.4419C0.689261 10.3247 0.623413 10.1658 0.623413 10C0.623413 9.83424 0.689261 9.67527 0.806471 9.55806C0.923682 9.44085 1.08265 9.375 1.24841 9.375C3.04529 9.375 3.12341 8.46172 3.12341 6.5625C3.12341 5.64687 3.12341 4.7 3.49841 3.92656C3.95935 2.97969 4.88435 2.5 6.24998 2.5C6.41574 2.5 6.57471 2.56585 6.69192 2.68306C6.80913 2.80027 6.87498 2.95924 6.87498 3.125C6.87498 3.29076 6.80913 3.44973 6.69192 3.56694C6.57471 3.68415 6.41574 3.75 6.24998 3.75C4.4531 3.75 4.37498 4.66328 4.37498 6.5625C4.37498 7.47813 4.37498 8.425 3.99998 9.19844C3.85281 9.50858 3.63884 9.78231 3.37341 10ZM18.75 9.375C16.9531 9.375 16.875 8.46172 16.875 6.5625C16.875 5.64687 16.875 4.7 16.5 3.92656C16.0406 2.97969 15.1156 2.5 13.75 2.5C13.5842 2.5 13.4252 2.56585 13.308 2.68306C13.1908 2.80027 13.125 2.95924 13.125 3.125C13.125 3.29076 13.1908 3.44973 13.308 3.56694C13.4252 3.68415 13.5842 3.75 13.75 3.75C15.5469 3.75 15.625 4.66328 15.625 6.5625C15.625 7.47813 15.625 8.425 16 9.19844C16.1467 9.50842 16.3601 9.78214 16.625 10C16.3601 10.2179 16.1467 10.4916 16 10.8016C15.625 11.575 15.625 12.5203 15.625 13.4375C15.625 15.3367 15.5469 16.25 13.75 16.25C13.5842 16.25 13.4252 16.3158 13.308 16.4331C13.1908 16.5503 13.125 16.7092 13.125 16.875C13.125 17.0408 13.1908 17.1997 13.308 17.3169C13.4252 17.4342 13.5842 17.5 13.75 17.5C15.1156 17.5 16.0406 17.0203 16.5 16.0734C16.875 15.3 16.875 14.3547 16.875 13.4375C16.875 11.5383 16.9531 10.625 18.75 10.625C18.9157 10.625 19.0747 10.5592 19.1919 10.4419C19.3091 10.3247 19.375 10.1658 19.375 10C19.375 9.83424 19.3091 9.67527 19.1919 9.55806C19.0747 9.44085 18.9157 9.375 18.75 9.375Z" fill="#535452"/>
</svg>
