<svg width="20" height="20" viewBox="0 0 20 20" fill="none" xmlns="http://www.w3.org/2000/svg">
<path d="M19.6689 6.94846L10.2939 1.94846C10.2034 1.90031 10.1026 1.87512 10.0001 1.87512C9.89766 1.87512 9.79679 1.90031 9.70636 1.94846L0.33136 6.94846C0.231363 7.00175 0.147735 7.08122 0.0894224 7.17838C0.0311093 7.27553 0.000305176 7.38671 0.000305176 7.50002C0.000305176 7.61333 0.0311093 7.72451 0.0894224 7.82166C0.147735 7.91882 0.231363 7.99829 0.33136 8.05158L2.50011 9.20861V12.9914C2.49946 13.2984 2.61245 13.5948 2.8173 13.8235C3.84074 14.9633 6.1337 16.875 10.0001 16.875C11.2821 16.8856 12.5545 16.6534 13.7501 16.1906V18.75C13.7501 18.9158 13.816 19.0748 13.9332 19.192C14.0504 19.3092 14.2093 19.375 14.3751 19.375C14.5409 19.375 14.6998 19.3092 14.8171 19.192C14.9343 19.0748 15.0001 18.9158 15.0001 18.75V15.5867C15.8151 15.1163 16.5516 14.5213 17.1829 13.8235C17.3878 13.5948 17.5008 13.2984 17.5001 12.9914V9.20861L19.6689 8.05158C19.7689 7.99829 19.8525 7.91882 19.9108 7.82166C19.9691 7.72451 19.9999 7.61333 19.9999 7.50002C19.9999 7.38671 19.9691 7.27553 19.9108 7.17838C19.8525 7.08122 19.7689 7.00175 19.6689 6.94846ZM10.0001 15.625C6.61964 15.625 4.63136 13.9735 3.75011 12.9914V9.87502L9.70636 13.0516C9.79679 13.0997 9.89766 13.1249 10.0001 13.1249C10.1026 13.1249 10.2034 13.0997 10.2939 13.0516L13.7501 11.2086V14.8289C12.7657 15.2883 11.5251 15.625 10.0001 15.625ZM16.2501 12.9883C15.8755 13.404 15.4563 13.7774 15.0001 14.1016V10.5414L16.2501 9.87502V12.9883ZM14.6876 9.29221L14.6704 9.28205L10.2954 6.94846C10.1495 6.8739 9.98004 6.85967 9.82368 6.90882C9.66732 6.95798 9.53653 7.06659 9.45948 7.21126C9.38244 7.35593 9.3653 7.52507 9.41177 7.68225C9.45824 7.83943 9.5646 7.97207 9.70792 8.05158L13.3595 10L10.0001 11.7914L1.95323 7.50002L10.0001 3.20861L18.047 7.50002L14.6876 9.29221Z" fill="#535452"/>
</svg>
